<svg xmlns="http://www.w3.org/2000/svg"  viewBox="0 0 48 48" width="480px" height="480px" baseProfile="basic"><path fill="#f4511e" d="M6,6h36v36H6V6z M38,38V10H10v28H38z M12.97,15.288v10.908c0,4.99,2.736,7.906,7.366,7.906	s7.51-2.974,7.51-7.906V15.288h-3.73v10.908c0,2.822-1.202,4.385-3.694,4.385s-3.73-1.656-3.73-4.385V15.288h-3.73H12.97z M32.654,17.513c1.325,0,2.282-0.9,2.282-2.225c0-1.325-0.965-2.282-2.282-2.282c-1.318,0-2.282,0.929-2.282,2.282	C30.372,16.642,31.337,17.513,32.654,17.513z M30.79,19.284v14.638h3.73V19.284H30.79z"/></svg>